<svg id="Ebene_1" data-name="Ebene 1" xmlns="http://www.w3.org/2000/svg" viewBox="0 0 2000 1797.42"><defs><style>.cls-1{fill:#fff;}.cls-2{fill:#c4171c;}</style></defs><path class="cls-1" d="M582,1451.86c145.06-84.4,287.65-173.84,440.31-245.68q53.27-25.07,108.15-46.88,14.57-5.76,29.24-11.25c16.15-6.07-9.59,3.33,6.75-2.48,3.33-1.19,6.65-2.39,10-3.57q31.77-11.22,64-21.18c88.09-27.22,178.61-47.15,270.15-61.43,129.34-20.17-59.32-9,71.88-12.34,28.21-.71,52.86-19.9,53.47-48.19.57-25.75-22.83-52.79-51.2-52.08-220.73,5.56-124,5.61-335.43,66.1-162.78,46.57-314.44,117.8-460.09,199.91-87.09,49.1-172.58,100.73-258.94,151-24,14-34,43.56-19.68,68.07,13.52,23.08,47.3,34,71.37,20Z"/><path class="cls-1" d="M583.86,1534.7c145.06-84.41,287.65-173.85,440.31-245.69q53.26-25.07,108.15-46.88,14.57-5.76,29.24-11.25c16.15-6.06-9.59,3.34,6.75-2.48,3.33-1.18,6.65-2.38,10-3.56q31.77-11.22,64-21.19c88.09-27.21,178.61-47.15,270.15-61.42,129.34-20.17,165.17-28.8,296.37-32.1,28.21-.71,52.86-19.9,53.47-48.2.56-25.75-22.83-52.79-51.2-52.07-220.73,5.56-348.45,25.36-559.92,85.86-162.78,46.57-314.44,117.8-460.09,199.91-87.09,49.1-172.58,100.73-258.94,151-24,14-34,43.57-19.68,68.07,13.52,23.08,47.3,34,71.37,20Z"/><path class="cls-1" d="M633.66,1618c145.05-84.4,287.65-173.84,440.31-245.68q53.27-25.07,108.15-46.88,14.55-5.76,29.23-11.25c16.16-6.06-9.59,3.33,6.75-2.48,3.33-1.19,6.66-2.39,10-3.56q31.77-11.24,64-21.19c88.1-27.22,178.61-47.15,270.15-61.42,129.34-20.18-77.87-15.48,53.33-18.78,28.22-.71,52.86-19.9,53.48-48.2.56-25.75-22.83-52.79-51.21-52.07-220.72,5.56-105.41,12-316.88,72.54-162.77,46.57-314.43,117.8-460.09,199.9-87.09,49.1-172.58,100.73-258.93,151-24,14-34,43.56-19.69,68.07,13.52,23.08,47.3,34,71.38,20Z"/><path class="cls-2" d="M562.4,1360.33c145.06-84.4,287.65-173.84,440.32-245.68q53.27-25.07,108.14-46.88,14.57-5.76,29.24-11.25c16.16-6.07-9.59,3.33,6.75-2.48l10-3.57q31.77-11.22,64-21.18c88.1-27.22,178.61-47.15,270.15-61.43,129.34-20.17,165.17-28.79,296.37-32.1,28.22-.71,52.86-19.89,53.48-48.19.56-25.75-22.84-52.79-51.21-52.08-220.72,5.56-348.45,25.37-559.92,85.87C1067,967.92,915.3,1039.15,769.65,1121.26c-87.09,49.1-172.58,100.73-258.94,151-24,14-34,43.56-19.68,68.07,13.52,23.08,47.3,34,71.37,20Z"/><path class="cls-2" d="M593.21,1237.08c21.91-20,44.38-39.42,67.55-58.08q17-13.71,34.52-26.88,8.88-6.69,17.87-13.22c3.63-2.63,7.27-5.26,10.94-7.85-9.15,6.47,3.14-2.13,4-2.72a1287.07,1287.07,0,0,1,174.49-100.95c72-34.46,132.22-56.9,207.41-78.85,86.43-25.24,175.14-43.37,264.71-56,118.77-16.74,239-23,359.22-23.4,28.23-.09,52.86-20.33,53.47-48.19.57-26.26-22.82-52.17-51.2-52.08C1373.44,770,996.93,827.42,695.33,1027.44A1446.67,1446.67,0,0,0,519.85,1164.3c-48.36,44.12,24.85,117,73.36,72.78Z"/><polygon class="cls-2" points="644.79 1148.03 609.99 1252.22 1439.33 900.43 1725.42 885.7 1661.24 782.02 1249.18 857.91 1007.24 928.16 763.87 1033.69 644.79 1148.03"/><path class="cls-2" d="M1875.43,1004.23c-33.84,1,3.38,20,9.07.31a62.94,62.94,0,0,0,4.19-21.61c.57-31.13-22.82-61.86-51.2-61.75-184.72.7-843.15-32-706.63,98,107.77,102.63,101,276.81,101,276.81,12.56-5,165-26.47,177.62-31.11,88.1-32.28,39.81-86.77,131.34-103.7,129.35-23.92,201.17-34.15,332.37-38.07,28.22-.85,52.86-23.59,53.48-57.15C1927.2,1035.45,1903.8,1003.38,1875.43,1004.23Z"/><path class="cls-2" d="M623,1693c137.54-94,277.24-185.76,426.85-261.71,156.85-79.62,319.51-138.19,494-174.07,115.51-23.74,233-37.06,351.27-42,28.19-1.18,52.86-19.56,53.48-48.19.55-25.37-22.85-53.27-51.2-52.08-208.16,8.73-414.52,41-610.52,107-168,56.61-325.64,134.63-475.33,225.91-81.83,49.9-161.34,103.12-240.28,157-22.81,15.59-34.75,42.33-19.68,68.07,12.71,21.71,48.41,35.71,71.37,20Z"/><path class="cls-2" d="M648.7,1790.73c134.81-92.07,273.58-179.29,421.42-251.46,156.77-76.54,317-132.44,489.06-172.43,115.41-26.82,232.79-45.72,350.9-59.24,28.05-3.21,44.3-36,37.93-60.28-7.57-28.85-35.42-40.61-63.55-37.39-199.84,22.87-397.63,61.85-586.84,126.42-163,55.62-317.91,128.43-464.87,215.09C752.17,1599,674,1650.05,597,1702.63c-22.82,15.59-34.76,42.33-19.69,68.07,12.72,21.71,48.41,35.71,71.38,20Z"/><polygon class="cls-2" points="891.91 1459.38 894.04 1465.14 923.6 1545.37 1582.11 1303.65 1819.32 1243.61 1762.59 1185.23 1149.44 1323.57 891.91 1459.38"/><path class="cls-1" d="M1641.71,1085.74c-83.79,9.7-169.22,27.77-255,54.33q-9.17-36.54-18.34-72.79c85.84-28.38,171.47-48.23,255.59-59.71Q1632.86,1046.51,1641.71,1085.74Z"/><path class="cls-1" d="M1513.42,939.45q30.28,125.58,60.17,254.33-38,6.06-76.35,14.41-30.23-126.06-60.76-249Q1475,948.2,1513.42,939.45Z"/><path d="M906.15,34.85c-45.61,38.84-197.12,402.27-270,714.4C760.36,887.52,1023.8,1037,1173.55,917.41c6.56-4.53,10.65,11.13,10.55,14.11-2.68,26.14-34.3,96.51-98.1,139.43-119.2,79-372.11-120.78-470.16-225.85-23,122-29.1,227.31-5.84,292.59,4.52,3.75-5.27,17.09-17.1,22.61-29.59,13.8-91.57,6.09-116.87-50.92C434.8,1010,460.15,449.21,405.78,326.7,383.71,277,359.18,279.62,349.71,284c-103,48-269.3,484.23-219.78,595.83,21,47.31,108.77-63.89,115-59.48C256.78,831,205.48,931,166.43,949.22,130.92,965.77,16.74,904.81,1.77,851.77c-20.89-82.49,146.73-554.45,295.85-624,101.78-47.45,175.7-16,205.85,51.89,29.07,65.5,36.55,262.58,47.25,450.84C593.58,460.2,687.87,167.37,760,37.1,776.27,6.1,975.86-26.93,906.15,34.85Z"/><path d="M1379.87,575.47c-2.85,33.59-48.35,142.06-148.23,166.59-5.06,1.24-9.16.88-13,1.81-31.78,58.51-77.31,103.94-134.2,117.92-84.72,20.8-163-5.2-192.68-132.19C852.73,562.42,963.2,354.4,1051.7,332.67c125.17-30.74,180.87,47.39,201.48,135.51,13.93,59.62,11.73,124.56-2.09,185.51,27.86-12.32,89.58-68.59,97.55-143.18,0,0,0-5.49,3.84-6.42C1387.88,495.39,1379.87,575.47,1379.87,575.47ZM932.64,120.73c13.05-12.8,42-9,65.84,7.13,25.38,17.06,31,86.93,16.7,100s-54.69,46.32-89.47,23.34S920.55,131.92,932.64,120.73ZM1129,691.9c-6.83-12-10.82-23.38-14.15-37.64-8.48-36.28,11.05-67.12,37.65-79.13,4.88-47.79,3.43-94-4.15-126.42-8.78-37.59-26.22-60.71-56.57-53.26-93.56,23-155.85,402.79-21.82,369.87C1101.56,757.56,1116.65,730.56,1129,691.9Zm18.12-608.77c13.05-12.8,42-8.95,65.83,7.12,25.39,17.07,31,86.94,16.71,100.05s-54.68,46.32-89.47,23.34S1135,94.32,1147.12,83.13Z"/><path d="M1994,620.8c-10.39.54-12.17-35.39-86.18-31.54C1813,594.2,1677.4,668,1561.81,726c-2,12.12-4,24.23-8.6,36.48C1516.36,885.86,1419,943,1330.77,923.55c-73.77-17.51-132-115.88-83.32-183.79,30.48-41.62,74.19-26.55,94.46-11.6,6.82,6.31,19.17,19,34.75,18.21s36.09-7.22,57.71-17.69c5.39-75-13.49-140.73-35.3-213-13.07,51.39-34.53,91.2-38,99.39-17.7,36.95-46-8.28-37.81-27.38,14.13-30.1,49-141.33,65.48-202.23,11.11-64.62,44-110.37,47.42-119.89,14.27-27.43,112.6,12.81,114.51,51.41,1,20-12.39,12.65-20.69,29.1-63.38,139.4,11.8,211.54,29.66,309.35,113.56-72.63,247.11-162.32,340.6-167.19C1975.52,484.33,2016.08,619.65,1994,620.8ZM1425.58,787.85c-16.61,6.2-32.06,9.67-45,10.35-22.07,1.15-43-27.11-50.55-48.07-46.65,30.45-45.47,133.13,38.41,118.09C1391.62,864.34,1413.61,835.17,1425.58,787.85Z"/></svg>