<?xml version="1.0" encoding="UTF-8" standalone="no"?>
<!-- Created with Inkscape (http://www.inkscape.org/) -->
<svg
   xmlns:svg="http://www.w3.org/2000/svg"
   xmlns="http://www.w3.org/2000/svg"
   xmlns:xlink="http://www.w3.org/1999/xlink"
   version="1.0"
   width="110"
   height="110"
   id="svg2">
  <defs
     id="defs4" />
  <rect
     width="106.17499"
     height="108.29496"
     rx="40.279369"
     ry="40.279366"
     x="1.7419885"
     y="0.84196091"
     id="rect2398"
     style="fill:#ffffff;fill-rule:nonzero;stroke:#2c2e6a;stroke-width:1.4839766;stroke-linecap:butt;stroke-linejoin:round;stroke-miterlimit:4" />
  <rect
     width="96.635147"
     height="99.031128"
     rx="36.569427"
     ry="35.509438"
     x="6.51191"
     y="5.4242363"
     id="rect3170"
     style="fill:#2f2e6a;fill-rule:nonzero;stroke:none;stroke-width:6;stroke-linecap:butt;stroke-linejoin:round;stroke-miterlimit:4" />
  <path
     d="M 18.328123,34.93813 L 18.328123,76.63079 L 26.14074,81.36269 L 33.95336,76.63079 L 33.953362,59.67109 L 47.385989,67.42639 L 47.385989,93.41389 L 54.866678,97.84709 L 62.347367,93.64239 L 62.347374,67.42639 L 76.214149,59.67109 L 76.214149,76.63079 L 83.772492,81.36269 L 91.330832,76.63079 L 91.330839,34.93813 L 54.866678,54.38547 L 18.328123,34.93813 z"
     id="path3172"
     style="fill:#ffffff;fill-rule:evenodd;stroke:none;stroke-width:1px;stroke-linecap:butt;stroke-linejoin:miter" />
  <g
     transform="matrix(0.2473294,0,0,0.2473294,-23.344282,-33.6617)"
     id="g3203">
    <path
       d="M 396.42856,250.75504 C 396.42856,290.10533 364.52885,322.00504 325.17856,322.00504 C 285.82827,322.00504 253.92856,290.10533 253.92856,250.75504 C 253.92856,211.40475 285.82827,179.50504 325.17856,179.50504 C 364.52885,179.50504 396.42856,211.40475 396.42856,250.75504 z"
       transform="matrix(0.8621554,0,0,0.8546366,35.716969,40.37918)"
       id="path3174"
       style="fill:none;fill-rule:nonzero;stroke:#ffffff;stroke-width:18.63959503;stroke-linecap:butt;stroke-linejoin:round;stroke-miterlimit:4" />
    <path
       d="M 316.53125,193.79076 L 316.53125,315.57647"
       id="path3178"
       style="fill:none;fill-rule:evenodd;stroke:#ffffff;stroke-width:4;stroke-linecap:butt;stroke-linejoin:miter;stroke-miterlimit:4;stroke-dasharray:none" />
    <path
       d="M 318.53125,196.65625 C 310.62873,199.43912 303.80821,205.19183 298.53125,212.71875 C 290.96673,223.5086 286.375,238.1914 286.375,254.40625 C 286.37499,270.6211 290.96672,285.33515 298.53125,296.125 C 303.80822,303.65192 310.62873,309.40463 318.53125,312.1875 L 318.53125,308.28125 C 312.68773,305.67595 307.28272,301.03246 302.8125,294.65625 C 295.6708,284.46949 291.15625,270.17783 291.15625,254.40625 C 291.15626,238.63467 295.67077,224.37425 302.8125,214.1875 C 307.28282,207.81117 312.68761,203.13652 318.53125,200.53125 L 318.53125,196.65625 z"
       id="path3184"
       style="fill:#ffffff;fill-rule:nonzero;stroke:none;stroke-width:3.3440125;stroke-linecap:butt;stroke-linejoin:round;stroke-miterlimit:4;stroke-dashoffset:0" />
    <use
       transform="matrix(-1,0,0,1,633.0625,0)"
       id="use3199"

       xlink:href="#path3184" />
    <use
       transform="matrix(0,1,-1,0,570.75503,-61.847639)"
       id="use3201"
       x="0"
       y="0"
       width="744.09448"
       height="1052.3622"
       xlink:href="#path3178" />
  </g>
  <path
     d="M 104.66162,101.41129 C 105.35375,101.41129 106.02948,101.58889 106.68883,101.94399 C 107.34817,102.29919 107.86181,102.80739 108.22974,103.46849 C 108.59765,104.12969 108.78161,104.81909 108.78162,105.53669 C 108.78161,106.24709 108.60038,106.93009 108.23793,107.58579 C 107.87547,108.24149 107.3673,108.75059 106.71342,109.11309 C 106.05954,109.47549 105.3756,109.65669 104.66162,109.65669 C 103.94763,109.65669 103.26369,109.47549 102.60981,109.11309 C 101.95593,108.75059 101.44685,108.24149 101.08257,107.58579 C 100.71829,106.93009 100.53615,106.24709 100.53615,105.53669 C 100.53615,104.81909 100.72102,104.12969 101.09077,103.46849 C 101.46051,102.80739 101.97505,102.29919 102.6344,101.94399 C 103.29375,101.58889 103.96948,101.41129 104.66162,101.41129 L 104.66162,101.41129 z M 104.66162,102.09429 C 104.08241,102.09429 103.51869,102.24269 102.97045,102.53959 C 102.42221,102.83649 101.99327,103.26089 101.68363,103.81279 C 101.37399,104.36469 101.21918,104.93929 101.21918,105.53669 C 101.21918,106.13049 101.37126,106.69969 101.67544,107.24429 C 101.97961,107.78889 102.40491,108.21329 102.95133,108.51749 C 103.49774,108.82159 104.06784,108.97369 104.66162,108.97369 C 105.25539,108.97369 105.82549,108.82159 106.37191,108.51749 C 106.91832,108.21329 107.34271,107.78889 107.64507,107.24429 C 107.94741,106.69969 108.09859,106.13049 108.0986,105.53669 C 108.09859,104.93929 107.94468,104.36469 107.63687,103.81279 C 107.32905,103.26089 106.90011,102.83649 106.35006,102.53959 C 105.79999,102.24269 105.23718,102.09429 104.66162,102.09429 L 104.66162,102.09429 z M 102.85297,107.81529 L 102.85297,103.37839 L 104.37748,103.37839 C 104.8984,103.37839 105.27543,103.41939 105.50857,103.50129 C 105.7417,103.58329 105.92749,103.72629 106.06592,103.93029 C 106.20434,104.13429 106.27355,104.35099 106.27356,104.58049 C 106.27355,104.90469 106.15789,105.18699 105.92658,105.42749 C 105.69526,105.66789 105.38835,105.80269 105.00586,105.83179 C 105.1625,105.89739 105.28818,105.97569 105.38289,106.06679 C 105.56138,106.24159 105.77995,106.53489 106.0386,106.94649 L 106.57955,107.81529 L 105.70528,107.81529 L 105.31186,107.11589 C 105.00222,106.56579 104.75269,106.22159 104.56326,106.08309 C 104.43212,105.98119 104.24087,105.93019 103.98952,105.93019 L 103.56878,105.93019 L 103.56878,107.81529 L 102.85297,107.81529 z M 103.56878,105.31819 L 104.43759,105.31819 C 104.85286,105.31819 105.13609,105.25629 105.28727,105.13239 C 105.43844,105.00849 105.51403,104.84459 105.51403,104.64059 C 105.51403,104.50949 105.4776,104.39199 105.40475,104.28819 C 105.33189,104.18439 105.2308,104.10689 105.10149,104.05589 C 104.97216,104.00489 104.73265,103.97939 104.38295,103.97939 L 103.56878,103.97939 L 103.56878,105.31819 z"
     id="text3238"
     style="fill:#2f2e6a;stroke:none;stroke-width:1px;stroke-linecap:butt;stroke-linejoin:miter" />
</svg>
