<?xml version="1.0" encoding="UTF-8" standalone="no"?>
<!-- Created with Inkscape (http://www.inkscape.org/) -->
<svg
   xmlns:svg="http://www.w3.org/2000/svg"
   xmlns="http://www.w3.org/2000/svg"
   version="1.0"
   width="100"
   height="100"
   viewBox="-0.95782506 -0.95782506 104.12315 33.843152"
   id="svg11891">
  <defs
     id="defs11893" />
  <g
     transform="matrix(3.4405237,0,0,3.4405237,-248.482,-36.080625)"
     id="g2383">
    <path
       d="M 71.94375,5.5511151e-16 L 102.2075,5.5511151e-16 L 102.2075,30.258751 L 71.948751,30.258751 L 71.94375,5.5511151e-16 z"
       id="path9856"
       style="fill:#000000;fill-opacity:1;fill-rule:nonzero;stroke:none" />
    <path
       d="M 72.823751,0.87875 L 101.32875,0.87875 L 101.32875,29.380001 L 72.823751,29.380001 L 72.823751,0.87875 z"
       id="path9858"
       style="fill:#f8f400;fill-opacity:1;fill-rule:nonzero;stroke:none" />
    <path
       d="M 78.5,2.58375 C 77.69281,2.64229 76.79641,2.99875 75.90625,3.865 C 73.792501,5.925 73.625,8.56625 73.625,9.33375 L 74.78125,8.14625 L 79.21875,12.583751 L 80.46875,11.365001 L 80.46875,8.4275 L 81.71875,9.708751 L 81.71875,13.240001 L 83.500005,15.021251 L 74.46875,24.021251 L 78.0625,27.583751 L 87.062505,18.583751 L 96.187505,27.677501 L 99.718755,24.115001 L 90.625005,15.021251 L 92.406255,13.271251 L 92.375005,9.708751 L 93.656255,8.4275 L 93.656255,11.365001 L 94.906255,12.583751 L 99.343755,8.14625 L 100.53125,9.33375 C 100.53124,8.57125 100.33875,5.925 98.218755,3.865 C 95.851264,1.555 93.471255,2.89375 92.656255,3.70875 L 88.343755,8.02125 L 89.437505,9.08375 L 87.062505,11.458751 L 84.687505,9.08375 L 85.750005,8.02125 L 81.46875,3.70875 C 80.955471,3.19939 79.84531,2.48619 78.5,2.58375 z"
       id="path9842"
       style="fill:#000000;fill-opacity:1;fill-rule:nonzero;stroke:none" />
  </g>
</svg>
